<?xml version="1.0" encoding="utf-8"?>
<!-- Generator: Adobe Illustrator 25.0.1, SVG Export Plug-In . SVG Version: 6.00 Build 0)  -->
<svg version="1.0" id="katman_1" xmlns="http://www.w3.org/2000/svg" xmlns:xlink="http://www.w3.org/1999/xlink" x="0px" y="0px"
	 viewBox="0 0 694 508" style="enable-background:new 0 0 694 508;" xml:space="preserve">
<style type="text/css">
	.st0{fill:#FFFFFF;}
	.st1{fill:#1D191A;}
	.st2{fill:#EE2F2A;}
</style>
<path class="st0" d="M190.8,448.2c-8.1,0-14.8-6.2-15.4-14.2L147.9,89c-0.7-8.5,5.7-16,14.3-16.7c0.4,0,0.8,0,1.2,0h345
	c8.6-0.4,15.8,6.2,16.2,14.8c0,0.5,0,1,0,1.5l-27.8,345.4c-0.7,8-7.3,14.2-15.4,14.2H190.8z"/>
<path class="st1" d="M508.8,69.5h-345c-5,0-9.7,2.1-13.1,5.7c-3.3,3.7-5,8.6-4.7,13.5l27.4,345.4c0.9,9,8.3,16,17.3,16.2h290.6
	c9.3-0.1,17-7.2,17.8-16.4l27.4-345c0.4-5-1.3-9.8-4.7-13.5c-3.4-3.6-8.1-5.7-13.1-5.7 M508.9,74.4c7.3,0.1,13.1,6.1,13,13.4
	c0,0.1,0,0.2,0,0.4l-27.4,345c-0.2,7.1-5.9,12.7-13,12.8H190.8c-6.9,0-12.6-5.3-13.1-12.2L150.3,88.1c-0.6-7.3,4.9-13.6,12.1-14.2
	c0.3,0,0.7,0,1,0L508.9,74.4z"/>
<path class="st2" d="M243.2,84h-76.5c-3.6,0-6.4,3-6.4,6.5c0,0.1,0,0.2,0,0.4l19.3,246.5h63.3L243.2,84z"/>
<path class="st2" d="M492.3,337.4l19.6-246.5c0.2-3.6-2.5-6.6-6-6.9c-0.1,0-0.2,0-0.4,0H429v253.4H492.3z"/>
<path class="st1" d="M291.7,242.1c1.5,12.1,8.5,22.8,18.8,29.2l10.6,7.8l0,0c0.4,0-2.3,0-3.1,0c-2.9-0.2-5.8-0.2-8.6,0
	c-3,0.6-2.6,1.3-2.9,3.5c-0.3,2.2,0,4.6,0,7s0,4.1,0.8,5.2s1.6,1.4,5.9,1.1s15.1,0,16.5-0.5c1.4-0.5,1.5,0,0,2.3
	c-4.5,12.4-9.8,24.5-15.9,36.3c-1.2,2.2,2.2,1.1,5.1,2.6c5.3,2.5,5.1,3.2,6.5,0.5c4-8.4,7.4-17,10.3-25.9c0-0.7,0-1.3,0.5,0
	s0,23.3,0,30.4c-0.1,0.3-0.1,0.7,0,1c0.4,0.4,0.9,0.6,1.5,0.7l0,0c2.7-1,5.7-1.4,8.6-1.1h0.7h0.4c0-0.4,0-0.8,0-1.2l0,0v-1.8
	c0,0,0-0.7,0-1c0-0.3,0-0.9,0-1.4v-7.2c0-0.9,0-1.7,0-2.6c0-0.9,0-1.8,0-2.7c0-0.9,0-1.9,0-2.8v-2.8v-2.9c0-0.9,0-2,0-2.9
	s0-1.9,0-2.9c0-1,0-1.9-0.4-2.8c-0.4-0.9,0-1.3-0.5-2.2c-0.2-0.9-0.4-1.8-0.6-2.7c0-0.9-0.4-1.7-0.7-2.6c-0.3-0.9,0-1.3-0.6-2v-1.1
	c0,0,0.4,0,0.9,0l0,0c2.9-0.2,5.8-0.2,8.6,0l8.6,0.8c1.6,0,3.5,0.5,3.4-4.3v-7c0-0.2,0-0.3,0-0.5v-0.5l0,0v-0.5
	c0.3-1.7-0.7-3.4-2.3-3.9c-3.6-0.7-7.4-0.8-11-0.4c-0.6,0-0.7,0-0.5,0l0,0c4.5-3.2,8.8-6.8,12.7-10.8c5.4-4.1,9.8-9.2,13.1-15
	c4.5-9,7.1-18.8,7.6-28.8c0-2.7,0-2.4,2.1-2.3c1.2,0,2.3-0.3,3.4-0.9c3.4-0.8,6.5-12.4,6.5-12.4s5.1-17.7,6.4-24.8
	c1.3-7.2,0.8-10.3-3.1-12.2H400c-0.2-0.3-0.2-0.6,0-0.9c0-0.3,0-0.6,0-0.9c2.5-5.9,4-12.1,4.6-18.5c0-1-0.9-1.3-1.2-1.6
	c-1-0.8-1.8-1.9-2.3-3.1c0-0.2,0-0.3,0-0.5c-1.3-15.8-8.1-30.7-19.1-42.1l-1.5-1.3c-1.4-1.3-2.8-2.5-4.3-3.6
	c-3.8-2.9-7.9-5.4-12.2-7.6c-3.7-1.5-7.4-2.8-11.3-3.8h-1.9l-4.1-0.8c-4.3-0.7-8.7-0.9-13-0.6h-3.1c-0.9,0-2.2,0-3.6,0.4
	c-2,0.2-4,0.6-6,1c-1.6,0-3.8,0.9-6.5,1.6l-3.4,1h-0.9l-3.6,1.3l-5.5,2.3l-1.5,0.6c-2.7,0.9-3.3,2.4-3.4,3.3
	c-0.1,0.5-0.2,1.1-0.4,1.6c-3.3,5.9-9.6,9.4-16.4,9.1c-0.9,0-1.8,0-1.5,1c1.6,3.3,4.2,5.9,7.5,7.5c0,0.4-2.2,0.9-2.6,1
	c-1.8,0.1-3.7,0.1-5.5,0l0,0c-3.2,0.1-5.9,2.2-6.8,5.3c-0.2,0.5-0.2,1,0,1.5c1.2,1.6,2.2,3.3,3,5.1l0,0c0.2,0.6,0.4,1.3,0.5,1.9
	c0.6,1.1,0.6,2.5,0,3.6c-1.6,3.3-5.8,4.2-6.4,7.4c-0.3,5.1,0.6,10.2,2.4,15c0.9,4.3,2,8.6,3.4,12.8l0,0h-1.2
	c-2.4,0.9-3.1,2.8-3.4,6.5c-0.6,8.2,5.4,20.7,7.3,31.5c0.5,4.4,2.3,8.5,5.1,11.9c0.8,0.5,1.8,0.9,2.8,1c2.2,0,3.2-1,3.3,1.2
	c0,0.4,0,1.6,0,2.3C287.8,231.9,289.3,237.2,291.7,242.1 M295.5,112.6c0.8-1,1.7-1.9,2.8-2.6c3.8-3,8.1-5.3,12.7-7
	c0.6-0.3,1.2-0.5,1.9-0.6c0.9,0,1.6-2.1,0-2.3c-1.1-0.1-2.3-0.1-3.4,0c-1,0-1.5-0.5-0.8-1.2c1.2-1.1,2.7-2,4.2-2.5
	c5.7-1.8,11.7-2.9,17.7-3.3c3.1-0.4,6.2-0.4,9.3,0c2.4,0.2,4.7,0.5,7,1c6.8,1.4,13.3,3.9,19.2,7.3c3.3,1.9,6.4,4,9.3,6.4
	c8.6,6.9,19.1,20.1,17.7,47.9c-0.1,2-0.3,4-0.8,6c0,0.8-1.3,2.2-1.9,0c-2-8.7-5.2-17-9.6-24.8c-0.8-1.1-1.9-1-1.8,0
	c0.1,2.3,0.1,4.6,0,6.9c-0.9,6.8,1.2,4.1,4.3,11.5c1.2,3.1,2,6.4,2.5,9.7c0,0.8,0,1.6,0,2.3c0,1,0,1.1,0,1.1c-2.2,0-5.8-1-7.8-1.1
	s-17.9,0-23.8,0c-4.6,0.3-9,2.1-12.4,5.3c-0.5,0.5-1.2,0.8-1.8,1.1c-0.2,0.1-0.5,0.1-0.7,0h-1.5c-1.5-0.3-3.1-0.3-4.6,0
	c-1.4,0.4-2.1,0.8-3.5,0c-4.6-4.4-10.9-6.7-17.2-6.4c-6.5,0-15.1,0-20.2,0h-2.8c0-0.2,0-0.3,0-0.5c0-9.2,6-7.2,6.6-9.6
	c1.7-6,2.2-20.4,12.6-29.1c3.2-3.2,7.7-4.8,12.2-4.4c4.2,0,8.4,0.8,12.3,2.5c2,0.9,3,1.6,3.8,1l3.7-3.1c0.9-0.7,0.5-1.6,0-2.3
	c-5-6-11.9-10.1-19.5-11.8c-2.3-0.5-4.6-0.8-6.9-0.9c-1.8-0.2-3.6-0.2-5.3,0c-4.7,0.9-9.3,2.4-13.7,4.4c0,0,0.6-1.5,0.8-1.8
	 M385.5,172c-0.5,0.5-0.9,0-1.9,0.4c-0.6,0.3-1.2,0.5-1.9,0.6c-0.8-0.1-1.4-0.8-1.3-1.6c0-0.3,0.1-0.5,0.3-0.7c0.9-1.3,2.2,0,3.2,0
	c0.5,0,0.9,0,1.4,0c0.5,0,0.6,0.6,0,1.1 M369.7,176.5c-1.1-0.7-2-1.6-2.8-2.6c0-0.5,0-1,0.6-1c2.5-0.3,5,0,7.3,1
	c0.9,1,1.2,2.5,0.5,3.8c-0.5,1.3-1.6,0.9-2.3,0.9C371.9,178,370.7,177.3,369.7,176.5 M371.1,182c-0.6,0-2.8,0-3.4-0.8
	c-1.3-0.7-2.6-1.6-3.7-2.6c-1.5-1-3.2-1.5-5-1.3c-1.3,0.1-2.7,0.3-4,0.7c-1.1,0-1.2-0.8-0.9-1.1c1.5-1.3,3.2-2.2,5.2-2.7
	c0.6-0.1,1.3-0.1,1.9,0c1.6,0.3,3.2,1.1,4.3,2.2c1.5,1.5,3.2,2.9,4.9,4.1C371,180.6,372.4,181.3,371.1,182 M323.2,205.3
	c0.3,0.7,0.5,1.4,0.4,2.2c0,0.5-2.1,1.2-3.6-1.1c-1.3-2-1.3-4.5,0-6.5c1.5-1.8,3.8-0.5,3.4,0c-0.7,1.7-0.7,3.6,0,5.3 M301.4,178.7
	c0.6-0.4,1.2-0.7,1.9-1l3-1.8c2.1-1.3,4.5-2.2,7-2.5c1.5,0,2.9,0.6,4.1,1.6c1.1,1.1,1.4,2.5,0,2.2c-1.8-0.4-3.7-0.4-5.5,0
	c-2.3,0.6-4.4,1.4-6.5,2.5c-1.1,0.5-2.3,0.8-3.4,0.8C301.4,180.5,300,179.8,301.4,178.7 M299.5,176c-1.5,0.9-2.8,1.9-3.9,2.6
	c-1,0.7-3.1,0-2.6-1.7c0.5-1.7,1.9-3.1,3.6-3.5l2.2-0.4h2.7c1.5,0,1.6,1.1,0.6,1.7l-2.6,1.6 M275.7,146.4c1.2-3.1,3-6,5.1-8.6
	c1-2,1-4.4,0-6.5c-0.6-1.6-1.2-3.2-2-4.7c-0.2-0.3-0.2-0.7,0-0.9l0,0h2.8c5.8-0.7,11.5-2.3,16.7-4.9c1-0.6,2.1-1,3.3-1.4
	c1.3-0.5,2.6-0.8,4-1l3.3-0.5c1.6,0,4,0.9,3.4,1.3c-4.9,1.7-9.3,4.7-12.7,8.6c-2,2.5-3.8,5.2-5.2,8.1c-1,1.4-2.2,2.7-3.6,3.6
	c-1.4,1.1-2.5,2.5-3.1,4.2c-2.6,7.1-4,14.5-4.1,22.1c0,1.5,0,2.9-1.6,3.4l0,0c-1.1,0.4-2,1.2-2.2,0c-0.7-2.7-2.3-8.6-3-12.1
	l-0.8-3.4c-0.8-2.4-1-5-0.5-7.5 M282,204.1c-2.2-1.5-2.1-3.4-2.7-5.3c-1.2-4.1-2.5-8.6-3.6-13.1c-0.7-2.5-0.9-8.6,2.6-8.6
	c1.5-0.2,3,0.7,3.5,2.2c1.2,3.6-1,3-0.5,7.2c0.5,4.2,1,6,2,11.1c0.4,2.3,1.2,8-0.9,6.6 M291,172.5c-0.7,0-1.3,0-2.1-0.5
	c-0.8-0.5-1.4,0-1.8-0.4c-0.4-0.4,0-0.9,0-1.1c0.5,0,0.9,0,1.4,0c1,0,2.3-1.4,3.2,0c0.5,0.7,0.2,1.7-0.5,2.1
	c-0.1,0.1-0.3,0.2-0.5,0.2 M292.3,197.6c0-1.4,0-3.4,3.4-1.4c1.1,0.7,2.4,1.1,3.6,1.5c0.7,0.3,1.5,0,1.8-0.7c0-0.1,0-0.1,0.1-0.2
	c0-0.7,1.1-2.1,0-2.8c-3.1-0.9-5.7-3.2-6.8-6.2c-0.2-0.8,0.1-1.6,0.8-2.1c0.7-0.2,1.4,0,1.9,0.5c0.9,1,2,1.7,3.3,2
	c0.6,0.1,1.2-0.2,1.6-0.7c2-3.1,5.6-4.8,9.3-4.4c2.3,0,4.5,0.8,5.3,0.9c1.2,0.2,2.4,0.2,3.6,0c1.6,0,4.2-0.9,2.9,0.6
	s-1.8,1.6-0.9,2.9l0,0c0.8,1.1,0.8,2.6,0,3.7l0,0c-2.4,2.5-5.8,3.9-9.2,3.8c-2.4,0-2.6,0-2.6,1.5c-0.1,0.4-0.1,0.8,0,1.2
	c0,0.7,0.6,0.9,2.3,1c1.1,0.1,2.3,0.1,3.4,0c0.5,0,1.2,0,0.9,0.7s0,0.4,0,0.4c-0.9,1.1-1.5,2.5-1.7,3.9c-0.1,0.7-0.5,1.3-1.1,1.7
	l0,0c-2.3,0.7-4.5,1.7-6.5,3.1c-2.4,2.1-7.6,3.7-9.8,1.2c-2.5-3.7-4.2-7.9-5-12.2 M316.1,256.6c-4.5,0-16-6.8-21-26.6
	c-1.1-3.8,0.5-7.9,3.9-9.9l2.2-0.7c1.1-0.1,2.2,0.7,2.3,1.8c0,0.2,0,0.3,0,0.5c0.3,7.9,2.1,15.6,5.4,22.8c1,1.4,1.9,1.5,2.4,0
	s1.1-2.6,1.3-3.2c0.2-0.6,1.6-2.6,2.1-0.9c0.9,3.6,3.1,11,4,12.9c1.6,3.2-0.9,3.1-2.6,3.2 M318.9,224.3c-3.1,0.2-6.2-0.8-8.6-2.8
	c0-0.7,0-1.1,0.9-1.4c1.7-0.6,3.3-1.4,4.8-2.3c0.9-0.8,3.7-2.5,5.1-3.4c1.9-1.2,4.4-1.4,6.5-0.5c3.4,2.6,7.6,3.8,11.9,3.4
	c3.5,0,3.5-3.1,6.4-4.1c1.4-0.4,2.8-1,4-1.9c1-0.5,2.2-0.3,3,0.5c1.5,1.4,2,2.5,3.7,4.4c1.5,1.8,3.5,3.2,5.7,4
	c0.6,0.1,1.1,0.5,1.3,1.1c0,0,0,1-2.6,1.7c-6.8,1.8-14,1.5-20.6-0.9c-2.2-1-4.7-1-6.8,0c-4.6,1.5-9.5,2.2-14.3,2.1 M348.3,229
	c-2.3,0.7-4.6,1.2-7,1.5c-1.9,0-7.8,0.5-8.6,0c-1.6-0.1-3.1-0.8-4.2-1.9c0,0-0.5-1.1,0.6-1.1c5.7-0.7,11.5-0.7,17.2,0h2.2
	c0,0,1.4,0.5,0,1 M399.2,182.6c-1.6,8.6-3.3,12.4-4.4,17.2s-3.4,13.1-5.7,13.3c-2.2,0.2-3.2-1.9-4.6,0s-1.6,2.7-2.3,3.6
	c-0.6,0.9-0.9,1.8-0.9,2.8c0,4.3-0.5,8.6-1.5,12.8c-1.4,7.7-4.6,14.9-9.5,21c-3.9,4.8-9.1,8.4-15,10.3c-1,0.4-2.2,0.4-3.2,0
	c-0.5,0-0.9-0.9-1.8-1.7c-0.9-0.9-1.2,0.4-1.3,0.8c0.3,2.1,0.1,4.1-0.5,6.1c-2.2,3.9-4.3,4.2-5.5,8.6c0,1.6,0,4.1-2.1,3
	c-6.3-4-10.9-10.1-13-17.2c-0.3-2.9,0.2-5.9,1.3-8.6c0.7-2.2,1.2-4.4,1.3-6.7c0-2.8-1-5.1,0-5.3s2.9,4.7,3.9,4.2
	c0.9-0.5,0-6.4,0-6.4c-0.8-1.2-2.1-2-3.5-2.2c-1.6,0-2.2-1.6,0-2.5c1.4-0.9,3-1.3,4.6-1.2c6.7,1.3,13.6,0.6,19.9-2
	c0.7-0.3,1.5-0.3,2.2,0c1.2,0.5,2.3,1.4,3.1,2.4c0.4,1,0,4.9,0.6,7.8c0.6,2.9,2.7,0,3.2-0.9c0.5-1.5,0.9-3.1,1.2-4.7
	c0.1-1.7,0.8-3.3,1.8-4.7c1.5-1.4,2.7-3.1,3.3-5.1c0.7-2.6,0.9-5.3,0.8-7.9c0-4.1-0.9-4.6-1.8-5.4c-0.9-0.9-2.2-0.8-4.7-3
	c-2.1-2.4-4-4.9-5.7-7.5c-1.8-2.5-4.4-4.3-7.4-5.1c-3.1-0.8-1.8,2.1-1.6,2.8c0.2,0.8,0.9,3.1,0,3.9c-3.6,2.9-8.2,4.2-12.8,3.6
	c-6.6-1.7-8.6-5.4-8.6-8.6c0.2-2.8,1.1-5.5,2.6-7.8c0.9-2.3,1.5-4.8,1.6-7.2c0.2-2.2,0.7-4.3,1.3-6.4c0.5-1.1,1.7-1.7,2.9-1.6
	c1.6-0.1,3,1,3.3,2.5c1.1,5.3,3,6.6,3.7,7.1c0.7,0.4,1.8-0.4,2.2-0.7c0.4-0.3,1.7-1.6,1.3-2.2c-0.4-0.7-0.8-1.4-0.9-2.2
	c0-1,1-0.9,1.3-0.7c2.3,1.5,4.9,2.3,7.6,2.3c6.3,1,7.2-1.2,11.5-0.5c0.8,0.2,1.5,0.6,2,1.2c0,0.6,0.8,1.8,1.3,2.1l2.5,0.4
	c0.9,0,2.5,0,2.2,1.7c-0.7,4.5-6,5.8-8.6,6.1c-0.5-0.1-1.1-0.1-1.6,0c-0.6,0.8-0.6,1.9,0,2.8c0.4,0.7,2.4,0.7,5.1,0
	c3.2-0.5,6-2.4,7.7-5.2c1.9-4,3.1-8.3,3.7-12.8c0-1.4,0.9-3.8,1.6-4.3c1.6-0.8,3.3-1.3,5-1.6c0.6,0,1,0.4,1.3,1.8
	c0.2,3.8,0.2,7.5,0,11.3c0,1.4,0.7,1.4,1.1,1.2c1.6-0.8,2.9-2.1,3.6-3.7c0.4-1.3-0.7-3.2,0-5c0.7-1.8,1.7-3.5,2.3-3.5
	c3.6,0,4.3,1.9,3.4,6.5 M449.6,356.2c1,0.3,1.7,1.3,1.5,2.4l-3.7,16.6c-0.2,0.8-0.9,1.4-1.7,1.4h-7.3c-1,0-1.7-0.8-1.7-1.8l0,0
	c0-5.4-3.1-9.5-10.9-9.4c-13.1,0.6-23.4,11.3-23.5,24.4c-1.4,11.1,6.5,21.2,17.6,22.6c1.6,0.2,3.3,0.2,5,0c5.4,0,10.7-0.8,15.9-2.3
	c0.9-0.3,1.9,0.2,2.2,1.1c0.1,0.3,0.1,0.6,0.1,0.9l-1.6,8.6c-0.1,0.8-0.6,1.4-1.4,1.6c-7.5,2.2-15.2,3.2-23,3
	c-29,0-40.7-16.6-38.9-33.6c1.6-15.2,11.6-37.4,51.1-37.4c6.2,0,12.4,0.8,18.4,2.5 M284.1,356.6c0.2-0.9,0.9-1.5,1.8-1.5h28.5
	c1,0,1.7,0.8,1.7,1.8c0,0.1,0,0.3-0.1,0.4l-0.9,4.4c-0.2,0.7-0.8,1.2-1.6,1.3l0,0c-3.3,0.4-6.5,1.6-9.2,3.5l-23.6,19.7l0,0
	l18.2,24.7c3.5,4.6,5.3,5.3,8.6,5.4c1,0,1.8,0.8,1.8,1.8c0,0.1,0,0.3-0.1,0.4l-0.9,4.4c-0.2,0.8-0.9,1.4-1.7,1.4h-14.1
	c-15.7,0-20.1-6.9-33.1-30.8l0,0l-3.9,17.2c-0.2,2.2,1.2,4.3,3.4,4.8l0,0c0.8,0.3,1.2,1.2,1,2l-1.1,5.1c-0.2,0.8-0.9,1.4-1.7,1.4
	h-32.9c-0.4,0.4-0.9,0.5-1.5,0.4l0.9-4.3c0.2-0.8,0.8-1.4,1.6-1.5l0,0c3,0,6.2-2.2,8.1-11.6l7.5-34.5c1-2.8-0.4-5.9-3.2-7
	c0,0,0,0,0,0l0,0c-0.9-0.3-1.4-1.2-1.2-2.2l1-4.6c0.2-0.9,0.9-1.5,1.8-1.5h31.3c1,0,1.7,0.8,1.7,1.8c0,0.1,0,0.2,0,0.3l-1,4.6
	c-0.1,0.6-0.6,1.2-1.2,1.4l0,0c-2.2,0.6-4,2.3-4.5,4.6l-4.1,19l0,0l24.2-20.2c1.5-1.2,1.1-2.8-0.6-3.4l0,0c-0.9-0.3-1.5-1.2-1.3-2.2
	l0.9-4.4 M372.3,377.8c-1,0-1.7-0.8-1.7-1.7c0-0.1,0-0.1,0-0.2l0,0c0-4.3-1.2-6.8-6-6.8h-15l-4.1,18.3H367c1,0,1.7,0.8,1.7,1.8
	c0,0.1,0,0.3-0.1,0.4l-2.3,9.1c-0.2,0.8-0.9,1.4-1.7,1.4h-22.3l-2.6,11.6c-0.6,2.7,0.8,5.4,3.4,6.4l0,0c0.7,0.3,1.1,1.1,0.9,1.8
	l-1.1,5.2c-0.2,0.8-0.8,1.4-1.6,1.4h-25.9c-1,0-1.8-0.9-1.7-1.9c0-0.1,0-0.1,0-0.2l11.5-51.7c1.1-2.9-0.4-6-3.3-7.1
	c-0.1,0-0.1,0-0.2-0.1l0,0c-0.9-0.3-1.4-1.2-1.2-2.1l1-4.6c0.2-0.9,0.9-1.5,1.8-1.5h58.3c1,0,1.7,0.8,1.7,1.8c0,0.1,0,0.3-0.1,0.4
	l-3.7,17.2c-0.2,0.8-0.9,1.3-1.7,1.3h-5.5"/>
<path class="st1" d="M510.6,443.6v6.7h-1V444h-2.2v-0.9h5v0.9L510.6,443.6z M519.2,450v-5.3l-1.7,3.4h-0.9l-1.7-3.4v5.6h-1v-7.2h1
	l2.2,4.4l2.2-4.4h0.9v7.2L519.2,450z"/>
</svg>
